<svg id="visual" viewBox="0 0 900 600" width="900" height="600" xmlns="http://www.w3.org/2000/svg" xmlns:xlink="http://www.w3.org/1999/xlink" version="1.1"><rect x="0" y="0" width="900" height="600" fill="#001220"></rect><path d="M0 413L21.5 402.5C43 392 86 371 128.8 367C171.7 363 214.3 376 257.2 392.2C300 408.3 343 427.7 385.8 428.5C428.7 429.3 471.3 411.7 514.2 404.3C557 397 600 400 642.8 400C685.7 400 728.3 397 771.2 392.2C814 387.3 857 380.7 878.5 377.3L900 374L900 601L878.5 601C857 601 814 601 771.2 601C728.3 601 685.7 601 642.8 601C600 601 557 601 514.2 601C471.3 601 428.7 601 385.8 601C343 601 300 601 257.2 601C214.3 601 171.7 601 128.8 601C86 601 43 601 21.5 601L0 601Z" fill="#142c48"></path><path d="M0 404L21.5 415.8C43 427.7 86 451.3 128.8 457.8C171.7 464.3 214.3 453.7 257.2 447.5C300 441.3 343 439.7 385.8 441C428.7 442.3 471.3 446.7 514.2 446C557 445.3 600 439.7 642.8 433.3C685.7 427 728.3 420 771.2 415.3C814 410.7 857 408.3 878.5 407.2L900 406L900 601L878.5 601C857 601 814 601 771.2 601C728.3 601 685.7 601 642.8 601C600 601 557 601 514.2 601C471.3 601 428.7 601 385.8 601C343 601 300 601 257.2 601C214.3 601 171.7 601 128.8 601C86 601 43 601 21.5 601L0 601Z" fill="#193658"></path><path d="M0 440L21.5 440.3C43 440.7 86 441.3 128.8 444.2C171.7 447 214.3 452 257.2 454.3C300 456.7 343 456.3 385.8 453.7C428.7 451 471.3 446 514.2 446.2C557 446.3 600 451.7 642.8 463.3C685.7 475 728.3 493 771.2 491.8C814 490.7 857 470.3 878.5 460.2L900 450L900 601L878.5 601C857 601 814 601 771.2 601C728.3 601 685.7 601 642.8 601C600 601 557 601 514.2 601C471.3 601 428.7 601 385.8 601C343 601 300 601 257.2 601C214.3 601 171.7 601 128.8 601C86 601 43 601 21.5 601L0 601Z" fill="#1f4068"></path><path d="M0 522L21.5 518.7C43 515.3 86 508.7 128.8 510.8C171.7 513 214.3 524 257.2 521.5C300 519 343 503 385.8 495.2C428.7 487.3 471.3 487.7 514.2 495.3C557 503 600 518 642.8 518.8C685.7 519.7 728.3 506.3 771.2 499.3C814 492.3 857 491.7 878.5 491.3L900 491L900 601L878.5 601C857 601 814 601 771.2 601C728.3 601 685.7 601 642.8 601C600 601 557 601 514.2 601C471.3 601 428.7 601 385.8 601C343 601 300 601 257.2 601C214.3 601 171.7 601 128.8 601C86 601 43 601 21.5 601L0 601Z" fill="#254b78"></path><path d="M0 532L21.5 535C43 538 86 544 128.8 543C171.7 542 214.3 534 257.2 532.7C300 531.3 343 536.7 385.8 544.7C428.7 552.7 471.3 563.3 514.2 561.5C557 559.7 600 545.3 642.8 541C685.7 536.7 728.3 542.3 771.2 547.3C814 552.3 857 556.7 878.5 558.8L900 561L900 601L878.5 601C857 601 814 601 771.2 601C728.3 601 685.7 601 642.8 601C600 601 557 601 514.2 601C471.3 601 428.7 601 385.8 601C343 601 300 601 257.2 601C214.3 601 171.7 601 128.8 601C86 601 43 601 21.5 601L0 601Z" fill="#2a5689"></path></svg>