<svg width="476" height="477" viewBox="0 0 476 477" fill="none" xmlns="http://www.w3.org/2000/svg">
<path id="crosshair" d="M467.479 229.873H433.314C431.131 181.077 410.767 134.864 376.229 100.325C341.69 65.7869 295.477 45.4231 246.681 43.24V9.07522C246.681 6.82295 245.786 4.66292 244.194 3.07032C242.601 1.47772 240.441 0.583008 238.189 0.583008C235.937 0.583008 233.777 1.47772 232.184 3.07032C230.591 4.66292 229.697 6.82295 229.697 9.07522V43.24C180.901 45.4231 134.688 65.7869 100.149 100.325C65.6109 134.864 45.247 181.077 43.064 229.873H8.8992C6.64692 229.873 4.48689 230.767 2.8943 232.36C1.3017 233.953 0.406982 236.113 0.406982 238.365C0.406982 240.617 1.3017 242.777 2.8943 244.37C4.48689 245.962 6.64692 246.857 8.8992 246.857H43.064C45.247 295.653 65.6109 341.866 100.149 376.405C134.688 410.943 180.901 431.307 229.697 433.49V467.655C229.697 469.907 230.591 472.067 232.184 473.66C233.777 475.252 235.937 476.147 238.189 476.147C240.441 476.147 242.601 475.252 244.194 473.66C245.786 472.067 246.681 469.907 246.681 467.655V433.49C295.477 431.307 341.69 410.943 376.229 376.405C410.767 341.866 431.131 295.653 433.314 246.857H467.479C469.731 246.857 471.891 245.962 473.484 244.37C475.076 242.777 475.971 240.617 475.971 238.365C475.971 236.113 475.076 233.953 473.484 232.36C471.891 230.767 469.731 229.873 467.479 229.873ZM246.681 416.486V382.733C246.681 380.48 245.786 378.32 244.194 376.728C242.601 375.135 240.441 374.24 238.189 374.24C235.937 374.24 233.777 375.135 232.184 376.728C230.591 378.32 229.697 380.48 229.697 382.733V416.486C185.408 414.32 143.509 395.753 112.155 364.399C80.8005 333.045 62.2338 291.146 60.0681 246.857H93.8213C96.0736 246.857 98.2336 245.962 99.8262 244.37C101.419 242.777 102.314 240.617 102.314 238.365C102.314 236.113 101.419 233.953 99.8262 232.36C98.2336 230.767 96.0736 229.873 93.8213 229.873H60.0681C62.2338 185.584 80.8005 143.685 112.155 112.331C143.509 80.9765 185.408 62.4098 229.697 60.2441V93.9974C229.697 96.2496 230.591 98.4097 232.184 100.002C233.777 101.595 235.937 102.49 238.189 102.49C240.441 102.49 242.601 101.595 244.194 100.002C245.786 98.4097 246.681 96.2496 246.681 93.9974V60.2441C290.97 62.4098 332.869 80.9765 364.223 112.331C395.577 143.685 414.144 185.584 416.31 229.873H382.557C380.304 229.873 378.144 230.767 376.552 232.36C374.959 233.953 374.064 236.113 374.064 238.365C374.064 240.617 374.959 242.777 376.552 244.37C378.144 245.962 380.304 246.857 382.557 246.857H416.31C414.144 291.146 395.577 333.045 364.223 364.399C332.869 395.753 290.97 414.32 246.681 416.486ZM238.189 161.935C223.073 161.935 208.296 166.418 195.727 174.816C183.158 183.214 173.362 195.151 167.577 209.117C161.792 223.082 160.279 238.45 163.228 253.276C166.177 268.102 173.456 281.72 184.145 292.409C194.834 303.098 208.452 310.377 223.278 313.326C238.104 316.275 253.472 314.762 267.437 308.977C281.403 303.192 293.34 293.396 301.738 280.827C310.136 268.258 314.619 253.481 314.619 238.365C314.596 218.102 306.536 198.675 292.208 184.346C277.879 170.018 258.452 161.958 238.189 161.935ZM238.189 297.81C226.432 297.81 214.939 294.324 205.163 287.792C195.387 281.26 187.768 271.976 183.268 261.114C178.769 250.252 177.592 238.299 179.886 226.768C182.179 215.236 187.841 204.644 196.155 196.331C204.468 188.017 215.06 182.355 226.592 180.062C238.123 177.768 250.076 178.945 260.938 183.445C271.8 187.944 281.084 195.563 287.616 205.339C294.148 215.115 297.634 226.608 297.634 238.365C297.617 254.125 291.348 269.235 280.204 280.38C269.059 291.524 253.949 297.793 238.189 297.81Z" fill="#DEDEDE"/>
</svg>
