<svg width="600" height="100" viewBox="0 0 600 100" fill="none" xmlns="http://www.w3.org/2000/svg">
<path id="featureTop" d="M0 60.8317L14.3 65.5514C28.7 70.2711 57.3 79.7105 85.8 80.6894C114.3 81.7032 142.7 74.2216 171.2 78.312C199.7 82.4025 228.3 97.9949 257 94.3241C285.7 90.6532 314.3 67.7189 343 64.2229C371.7 60.7268 400.3 76.6689 428.8 87.5766C457.3 98.4844 485.7 104.288 514.2 96.2469C542.7 88.2059 571.3 66.3205 585.7 55.3428L600 44.4001V0H585.7C571.3 0 542.7 0 514.2 0C485.7 0 457.3 0 428.8 0C400.3 0 371.7 0 343 0C314.3 0 285.7 0 257 0C228.3 0 199.7 0 171.2 0C142.7 0 114.3 0 85.8 0C57.3 0 28.7 0 14.3 0H0V60.8317Z" fill="black"/>
</svg>
