<svg width="797" height="692" viewBox="0 0 797 692" fill="none" xmlns="http://www.w3.org/2000/svg">
<!-- <style>
android,  #playStation{
    animation: logos1 2s alternate linear infinite;
    transform-origin: center;
}
#appStore, #googlePlay{
    animation: logos2 2s alternate linear infinite;
    transform-origin: center;
}

@keyframes logos1 {
    0% {
        transform: rotate(0deg);
    }
    100% {
        transform: rotate(3deg);
    }
}
@keyframes logos2 {
    0% {
        transform: rotate(0deg);
    }
    100% {
        transform: rotate(-3deg);
    }
}

@keyframes virus {
    0% {
        /* fill: green; */
        transform: scale(1) rotate(0deg);
    }
    50% {
        transform: scale(.5) rotate(300deg);
    }
    100% {
        /* fill: red; */
        transform: scale(1) rotate(360deg);
    }
}
</style> -->
<g id="icon-group-1 1" clip-path="url(#clip0_4_4)">
<g id="app-vendors">
<path id="android" d="M664.037 476.419C662.462 474.844 661.389 472.837 660.955 470.652C660.52 468.468 660.743 466.203 661.595 464.145C662.448 462.088 663.891 460.329 665.743 459.091C667.595 457.854 669.773 457.193 672 457.193C674.228 457.193 676.405 457.854 678.257 459.091C680.109 460.329 681.553 462.088 682.405 464.145C683.257 466.203 683.48 468.468 683.046 470.652C682.611 472.837 681.539 474.844 679.964 476.419C677.852 478.531 674.987 479.717 672 479.717C669.013 479.717 666.149 478.531 664.037 476.419V476.419ZM576.073 388.454C574.497 386.88 573.424 384.873 572.989 382.689C572.554 380.504 572.776 378.24 573.628 376.181C574.48 374.123 575.923 372.364 577.775 371.126C579.627 369.888 581.804 369.227 584.032 369.227C586.259 369.227 588.437 369.887 590.289 371.124C592.142 372.361 593.585 374.12 594.438 376.178C595.291 378.236 595.514 380.5 595.08 382.685C594.646 384.87 593.573 386.876 591.998 388.452C589.886 390.564 587.022 391.75 584.035 391.75C581.048 391.75 578.183 390.564 576.071 388.452L576.073 388.454ZM714.833 431.33L758.284 419.699C758.918 419.578 759.52 419.329 760.053 418.965C760.585 418.602 761.038 418.133 761.381 417.587C761.724 417.041 761.951 416.43 762.048 415.792C762.145 415.154 762.109 414.504 761.943 413.88C761.777 413.257 761.485 412.675 761.084 412.17C760.682 411.665 760.182 411.248 759.612 410.945C759.043 410.642 758.417 410.46 757.774 410.409C757.131 410.359 756.485 410.442 755.875 410.653V410.653L711.865 422.437C704.77 403.801 693.812 386.878 679.712 372.778C665.612 358.677 648.689 347.72 630.053 340.624L641.841 296.62C642.052 296.011 642.135 295.364 642.085 294.721C642.034 294.078 641.852 293.453 641.549 292.883C641.246 292.314 640.829 291.813 640.324 291.412C639.819 291.011 639.237 290.718 638.614 290.552C637.99 290.386 637.34 290.351 636.702 290.447C636.064 290.544 635.453 290.771 634.908 291.114C634.362 291.458 633.892 291.91 633.529 292.443C633.165 292.976 632.916 293.578 632.795 294.211V294.211L621.164 337.662C578.987 325.197 532.658 334.169 497.256 364.103L688.387 555.234C718.321 519.831 727.287 473.502 714.833 431.331" fill="url(#paint0_linear_4_4)"/>
<path id="appStore" d="M461.861 431.944L348.594 533.931C344.499 537.62 342.036 542.784 341.748 548.289C341.459 553.793 343.368 559.186 347.055 563.283L449.041 676.551C452.731 680.646 457.895 683.108 463.399 683.396C468.904 683.685 474.297 681.776 478.394 678.089L591.661 576.103C595.758 572.414 598.221 567.249 598.51 561.744C598.799 556.239 596.89 550.845 593.203 546.747L491.216 433.48C487.527 429.385 482.361 426.922 476.857 426.634C471.352 426.346 465.958 428.256 461.861 431.944V431.944ZM476.148 624.471C476.624 626.716 476.189 629.058 474.938 630.982C473.687 632.906 471.723 634.254 469.478 634.73C467.233 635.206 464.891 634.771 462.967 633.52C461.044 632.269 459.695 630.305 459.219 628.06L456.661 615.965C460.422 609.724 465.771 607.122 472.707 608.16L476.148 624.471ZM505.23 566.885L446.697 619.588C444.99 621.125 442.743 621.921 440.449 621.801C438.156 621.681 436.004 620.654 434.467 618.947C432.93 617.24 432.134 614.993 432.254 612.699C432.374 610.406 433.401 608.254 435.108 606.717L451.519 591.941L439.762 536.562L422.91 531.109C420.728 530.401 418.915 528.855 417.873 526.811C416.83 524.767 416.642 522.392 417.35 520.21C418.058 518.027 419.604 516.215 421.648 515.172C423.692 514.129 426.067 513.941 428.25 514.649L435.575 517.025L433.978 509.491C433.742 508.38 433.728 507.233 433.935 506.115C434.143 504.998 434.568 503.933 435.188 502.98C435.807 502.028 436.608 501.206 437.545 500.563C438.482 499.92 439.536 499.468 440.647 499.232C441.759 498.997 442.906 498.982 444.023 499.19C445.14 499.397 446.205 499.823 447.158 500.442C448.111 501.062 448.932 501.863 449.575 502.799C450.218 503.736 450.67 504.79 450.906 505.902L466.351 578.58L486.334 560.587C492.833 554.735 503.336 559.087 505.23 566.885ZM536.797 538.461L527.466 546.864L543.595 552.093C545.778 552.801 547.59 554.348 548.633 556.392C549.676 558.436 549.864 560.811 549.156 562.993C548.448 565.176 546.902 566.988 544.857 568.031C542.813 569.074 540.439 569.262 538.256 568.554C511.183 559.777 490.874 553.184 477.328 548.774C463.552 544.281 458.979 531.501 459.968 524.9C470.761 528.409 486.929 533.662 508.472 540.66L525.204 525.594C526.911 524.057 529.159 523.261 531.452 523.381C533.746 523.501 535.898 524.528 537.435 526.235C538.972 527.941 539.767 530.189 539.647 532.482C539.527 534.776 538.501 536.928 536.794 538.465L536.797 538.461Z" fill="url(#paint1_linear_4_4)"/>
<path id="playStation" d="M234.086 222.312L100.323 330.631C73.7154 352.177 56.7571 383.411 53.1783 417.46C49.5996 451.51 59.6935 485.586 81.2396 512.193C102.786 538.801 134.019 555.759 168.068 559.338C202.118 562.916 236.195 552.822 262.802 531.276L396.565 422.957C423.172 401.411 440.13 370.178 443.709 336.128C447.288 302.079 437.194 268.002 415.648 241.395C394.102 214.788 362.868 197.829 328.819 194.251C294.769 190.672 260.693 200.766 234.086 222.312V222.312ZM220.507 420.18L203.787 433.72L217.327 450.44C220.02 453.766 221.282 458.026 220.834 462.282C220.387 466.538 218.267 470.442 214.941 473.136C211.615 475.829 207.356 477.091 203.099 476.643C198.843 476.196 194.939 474.076 192.246 470.75L178.706 454.03L162.075 466.719C155.178 472.304 144.876 472.082 139.291 465.184C136.613 461.846 135.363 457.584 135.814 453.328C136.265 449.072 138.38 445.166 141.698 442.463L158.397 428.949L144.857 412.228C143.523 410.581 142.527 408.688 141.925 406.656C141.323 404.624 141.128 402.494 141.349 400.386C141.571 398.279 142.205 396.236 143.216 394.373C144.227 392.511 145.595 390.866 147.242 389.533C148.889 388.199 150.782 387.203 152.814 386.601C154.846 385.999 156.976 385.804 159.084 386.025C161.191 386.247 163.235 386.881 165.097 387.892C166.959 388.903 168.604 390.271 169.938 391.918L183.477 408.638L200.198 395.099C203.53 392.417 207.787 391.162 212.04 391.608C216.294 392.053 220.199 394.162 222.903 397.475C224.278 399.105 225.309 400.996 225.934 403.035C226.56 405.074 226.767 407.218 226.543 409.338C226.319 411.459 225.669 413.512 224.632 415.375C223.595 417.238 222.192 418.873 220.507 420.18V420.18ZM343.729 375.766C341.05 377.948 337.966 379.578 334.655 380.564C331.343 381.549 327.87 381.871 324.434 381.51C320.998 381.149 317.667 380.112 314.633 378.459C311.599 376.807 308.921 374.571 306.754 371.88C297.771 360.787 299.167 343.418 310.26 334.435C321.353 325.452 338.256 327.234 347.615 338.792C356.974 350.349 355.747 366.034 343.729 375.766ZM336.55 298.526C333.871 300.707 330.787 302.337 327.476 303.323C324.164 304.309 320.691 304.63 317.255 304.269C313.819 303.908 310.488 302.871 307.454 301.219C304.42 299.566 301.743 297.33 299.575 294.639C290.593 283.546 291.988 266.178 303.081 257.195C314.639 247.835 331.077 249.993 340.436 261.551C349.795 273.109 348.568 288.794 336.551 298.525L336.55 298.526Z" fill="url(#paint2_linear_4_4)"/>
<path id="googlePlay" d="M540.685 116.782L413.076 100.972L544.936 82.075L540.685 116.782ZM391.112 111.354C389.8 114.07 389.284 117.102 389.622 120.1C389.96 123.097 391.139 125.938 393.023 128.294L504.842 271.335C506.673 273.732 509.145 275.561 511.973 276.613C514.8 277.665 517.867 277.895 520.82 277.278L539.127 129.284L391.112 111.354ZM586.098 76.7418L558.366 80.6101L553.412 118.163L591.053 122.424L601.892 96.1424C604.1 86.949 595.941 76.5119 586.098 76.7396L586.098 76.7418ZM536.221 258.502L586.389 135.103L551.682 130.849L536.221 258.502Z" fill="url(#paint3_linear_4_4)"/>
</g>
</g>
<defs>
<linearGradient id="paint0_linear_4_4" x1="500.376" y1="234.072" x2="363.289" y2="394.865" gradientUnits="userSpaceOnUse">
<stop stop-color="#6D1818"/>
<stop offset="1" stop-color="#070303"/>
</linearGradient>
<linearGradient id="paint1_linear_4_4" x1="335" y1="646.145" x2="539.467" y2="817.568" gradientUnits="userSpaceOnUse">
<stop stop-color="#6D1818"/>
<stop offset="1" stop-color="#070303"/>
</linearGradient>
<linearGradient id="paint2_linear_4_4" x1="-48.794" y1="578.623" x2="198.703" y2="836.399" gradientUnits="userSpaceOnUse">
<stop stop-color="#6D1818"/>
<stop offset="1" stop-color="#070303"/>
</linearGradient>
<linearGradient id="paint3_linear_4_4" x1="384.098" y1="219.221" x2="595.151" y2="416.696" gradientUnits="userSpaceOnUse">
<stop stop-color="#6D1818"/>
<stop offset="1" stop-color="#070303"/>
</linearGradient>
<clipPath id="clip0_4_4">
<rect width="796.269" height="691.999" fill="white"/>
</clipPath>
</defs>
</svg>
