<svg id="visual" viewBox="0 0 540 960" width="540" height="960" xmlns="http://www.w3.org/2000/svg" xmlns:xlink="http://www.w3.org/1999/xlink" version="1.1"><rect width="540" height="960" fill="#b1d2e9"></rect><g><g transform="translate(374 828)"><path d="M0 -39.4L30.8 -24.5L38.4 8.8L17.1 35.5L-17.1 35.5L-38.4 8.8L-30.8 -24.5Z" fill="none" stroke="#259fd7" stroke-width="2"></path></g><g transform="translate(213 202)"><path d="M0 -38L29.7 -23.7L37 8.5L16.5 34.2L-16.5 34.2L-37 8.5L-29.7 -23.7Z" fill="none" stroke="#259fd7" stroke-width="2"></path></g><g transform="translate(143 440)"><path d="M0 -32L25 -20L31.2 7.1L13.9 28.8L-13.9 28.8L-31.2 7.1L-25 -20Z" fill="none" stroke="#259fd7" stroke-width="2"></path></g><g transform="translate(221 619)"><path d="M0 -37L28.9 -23.1L36.1 8.2L16.1 33.3L-16.1 33.3L-36.1 8.2L-28.9 -23.1Z" stroke="#259fd7" fill="none" stroke-width="2"></path></g><g transform="translate(358 150)"><path d="M0 -36L28.1 -22.4L35.1 8L15.6 32.4L-15.6 32.4L-35.1 8L-28.1 -22.4Z" stroke="#259fd7" fill="none" stroke-width="2"></path></g><g transform="translate(121 915)"><path d="M0 -30L23.5 -18.7L29.2 6.7L13 27L-13 27L-29.2 6.7L-23.5 -18.7Z" stroke="#259fd7" fill="none" stroke-width="2"></path></g><g transform="translate(142 259)"><path d="M0 -27L21.1 -16.8L26.3 6L11.7 24.3L-11.7 24.3L-26.3 6L-21.1 -16.8Z" stroke="#259fd7" fill="none" stroke-width="2"></path></g><g transform="translate(461 387)"><path d="M0 -28L21.9 -17.5L27.3 6.2L12.1 25.2L-12.1 25.2L-27.3 6.2L-21.9 -17.5Z" stroke="#259fd7" fill="none" stroke-width="2"></path></g><g transform="translate(492 133)"><path d="M0 -31L24.2 -19.3L30.2 6.9L13.5 27.9L-13.5 27.9L-30.2 6.9L-24.2 -19.3Z" stroke="#259fd7" fill="none" stroke-width="2"></path></g><g transform="translate(57 307)"><path d="M0 -28L21.9 -17.5L27.3 6.2L12.1 25.2L-12.1 25.2L-27.3 6.2L-21.9 -17.5Z" stroke="#259fd7" fill="none" stroke-width="2"></path></g></g></svg>