<svg xmlns="http://www.w3.org/2000/svg" xmlns:xlink="http://www.w3.org/1999/xlink" width="197.17" height="197.17" viewBox="0 0 197.17 197.17">
  <defs>
    <linearGradient id="linear-gradient" x1="0.5" x2="0.5" y2="1" gradientUnits="objectBoundingBox">
      <stop offset="0" stop-color="#d726d7"/>
      <stop offset="1" stop-color="#eb4123"/>
    </linearGradient>
  </defs>
  <g id="stress-icon" transform="translate(-119.415 -1567.415)">
    <path id="Path_1" data-name="Path 1" d="M86,0A86,86,0,1,1,0,86" transform="translate(124.832 1587.823) rotate(-5)" fill="none" stroke="#24e384" stroke-linecap="round" stroke-linejoin="round" stroke-width="10"/>
    <path id="face-grin-beam-solid" d="M0,53.607a53.607,53.607,0,1,1,53.607,53.607A53.6,53.6,0,0,1,0,53.607ZM53.67,69.479A94.968,94.968,0,0,1,26.07,65.5c-2.576-.8-5.088,1.445-4.041,3.916a34.308,34.308,0,0,0,63.281,0c1.047-2.471-1.466-4.712-4.041-3.916a95.074,95.074,0,0,1-27.6,3.979ZM47.429,48.5a1.685,1.685,0,0,0,1.152-1.591,17.458,17.458,0,0,0-3.476-10.219c-2.052-2.722-5-4.858-8.25-4.858s-6.2,2.136-8.25,4.858a17.458,17.458,0,0,0-3.476,10.219A1.685,1.685,0,0,0,26.28,48.5a1.659,1.659,0,0,0,1.864-.586h0l.042-.063c.042-.042-.1-.1.147-.188-.042-.168.335-.4.586-.691.524-.607,1.256-1.382,2.136-2.345,1.843-1.445,3.958-2.743,5.8-2.743s3.958,1.3,5.8,2.743c.879.963,1.612,1.738,2.136,2.345.251.293.44.524.586.691a2.028,2.028,0,0,0,.147.188l.042.063h0a1.659,1.659,0,0,0,1.864.586Zm31.641-.586a1.659,1.659,0,0,0,1.864.586,1.685,1.685,0,0,0,1.152-1.591,17.458,17.458,0,0,0-3.476-10.219c-2.052-2.722-5-4.858-8.25-4.858s-6.2,2.136-8.25,4.858a17.458,17.458,0,0,0-3.476,10.219A1.685,1.685,0,0,0,59.784,48.5a1.659,1.659,0,0,0,1.864-.586h0l.042-.063c.042-.042-.1-.1.147-.188-.042-.168.335-.4.586-.691.524-.607,1.256-1.382,2.136-2.345,1.843-1.445,3.958-2.743,5.8-2.743s3.958,1.3,5.8,2.743c.879.963,1.612,1.738,2.136,2.345.251.293.44.524.586.691a2.027,2.027,0,0,0,.147.188l.042.063Z" transform="translate(164.15 1611.982) " fill="url(#linear-gradient)"/>
  </g>
</svg>
