<svg width="432" height="432" viewBox="0 0 432 432" fill="none" xmlns="http://www.w3.org/2000/svg">
<path d="M144.009 193.633L99.7344 187.648C100.582 191.716 100.772 195.992 100.184 200.344C99.5956 204.697 98.2768 208.769 96.3796 212.466L141.19 218.523C140.94 213.871 141.115 209.131 141.762 204.344C142.259 200.669 143.017 197.096 144.009 193.633Z" fill="#42968A"/>
<path d="M99.7343 187.648C96.5778 172.5 84.197 160.277 67.9893 158.086C47.4295 155.306 28.5097 169.72 25.7305 190.28C22.9513 210.84 37.3652 229.76 57.925 232.539C74.1327 234.73 89.3145 226.232 96.3796 212.466C98.2768 208.769 99.5955 204.697 100.184 200.344C100.772 195.992 100.583 191.716 99.7343 187.648Z" fill="#96B5A5"/>
<path d="M335.621 219.534L291.346 213.549C291.382 217.151 291.165 220.798 290.669 224.473C290.021 229.259 288.932 233.876 287.456 238.295L332.266 244.352C331.418 240.284 331.228 236.008 331.816 231.656C332.405 227.303 333.723 223.231 335.621 219.534Z" fill="#07806D"/>
<path d="M374.075 199.461C357.868 197.27 342.686 205.768 335.621 219.534C333.723 223.231 332.405 227.303 331.816 231.656C331.228 236.008 331.418 240.284 332.266 244.352C335.423 259.5 347.803 271.724 364.011 273.914C384.571 276.694 403.49 262.28 406.27 241.72C409.049 221.16 394.635 202.24 374.075 199.461Z" fill="#42968A"/>
<path d="M180.268 148.436L153.101 112.776C151.462 116.705 148.806 120.27 145.177 123.035C141.547 125.801 137.403 127.415 133.18 127.952L160.579 163.916C166.234 157.696 172.897 152.46 180.268 148.436Z" fill="#42968A"/>
<path d="M153.101 112.776C156.429 104.796 155.537 95.31 149.921 87.9382C141.539 76.9359 125.825 74.8117 114.823 83.1938C103.82 91.5758 101.696 107.289 110.078 118.291C115.695 125.664 124.603 129.042 133.18 127.952C137.403 127.415 141.546 125.801 145.177 123.035C148.807 120.27 151.462 116.704 153.101 112.776Z" fill="#96B5A5"/>
<path d="M250.123 281.454L278.899 319.225C280.538 315.296 283.194 311.731 286.823 308.965C290.453 306.2 294.597 304.585 298.82 304.048L270.276 266.582C264.439 272.619 257.622 277.653 250.123 281.454Z" fill="#07806D"/>
<path d="M278.899 319.224C275.571 327.204 276.463 336.69 282.079 344.062C290.461 355.064 306.175 357.188 317.177 348.806C328.18 340.424 330.304 324.711 321.922 313.709C316.305 306.336 307.397 302.958 298.82 304.048C294.597 304.585 290.454 306.199 286.824 308.965C283.193 311.73 280.538 315.296 278.899 319.224Z" fill="#42968A"/>
<path d="M283.26 180.5L319.224 153.101C315.295 151.462 311.73 148.806 308.964 145.176C306.198 141.545 304.584 137.403 304.048 133.18L268.388 160.347C274.426 166.184 279.46 173.001 283.26 180.5Z" fill="#07806D"/>
<path d="M319.225 153.101C327.205 156.429 336.69 155.537 344.063 149.92C355.065 141.538 357.189 125.825 348.807 114.823C340.425 103.821 324.711 101.696 313.709 110.078C306.337 115.695 302.958 124.603 304.049 133.18C304.585 137.403 306.2 141.546 308.965 145.176C311.73 148.805 315.296 151.462 319.225 153.101Z" fill="#42968A"/>
<path d="M150.243 250.355L112.776 278.899C116.705 280.538 120.27 283.194 123.036 286.824C125.802 290.455 127.416 294.597 127.952 298.82L165.723 270.044C159.503 264.389 154.267 257.727 150.243 250.355Z" fill="#42968A"/>
<path d="M112.775 278.899C104.795 275.571 95.3101 276.463 87.9373 282.08C76.935 290.462 74.811 306.175 83.193 317.177C91.575 328.179 107.289 330.304 118.291 321.922C125.663 316.305 129.042 307.397 127.952 298.82C127.415 294.597 125.801 290.454 123.035 286.824C120.27 283.195 116.704 280.538 112.775 278.899Z" fill="#96B5A5"/>
<path d="M193.882 286.149L187.648 332.266C191.716 331.418 195.992 331.228 200.345 331.816L190.28 406.27C210.84 409.049 229.76 394.635 232.539 374.075C234.73 357.867 226.232 342.686 212.466 335.621L218.7 289.504C214.572 289.636 210.379 289.433 206.151 288.862C201.923 288.29 197.827 287.373 193.882 286.149Z" fill="#07806D"/>
<path d="M200.344 331.816C195.992 331.228 191.716 331.418 187.648 332.266C172.5 335.423 160.277 347.803 158.086 364.011C155.306 384.571 169.72 403.49 190.28 406.269L200.344 331.816Z" fill="#42968A"/>
<path d="M238.548 142.668L244.352 99.7343C259.5 96.5769 271.724 84.1969 273.914 67.9893C276.694 47.4294 262.28 28.5097 241.72 25.7305L231.656 100.184C227.303 99.5955 223.231 98.2767 219.534 96.3795L213.731 139.313C217.858 139.181 222.051 139.384 226.279 139.955C230.508 140.527 234.604 141.445 238.548 142.668Z" fill="#07806D"/>
<path d="M241.72 25.7305C221.16 22.9513 202.24 37.3651 199.461 57.925C197.27 74.1327 205.768 89.3136 219.534 96.3795C223.231 98.2768 227.303 99.5955 231.656 100.184L241.72 25.7305Z" fill="#42968A"/>
<path d="M291.346 213.549C291.226 201.792 288.348 190.537 283.26 180.5C279.46 173.001 274.426 166.184 268.388 160.347C260.126 152.362 249.985 146.213 238.548 142.668C234.604 141.445 230.508 140.527 226.279 139.956L221.032 178.773C241.592 181.553 256.006 200.472 253.227 221.032C250.448 241.592 231.528 256.006 210.968 253.227L206.151 288.862C210.379 289.433 214.572 289.635 218.7 289.504C229.868 289.148 240.55 286.307 250.123 281.454C257.622 277.654 264.439 272.62 270.276 266.581C277.898 258.696 283.847 249.097 287.456 238.295C288.932 233.876 290.021 229.259 290.669 224.473C291.165 220.798 291.383 217.151 291.346 213.549Z" fill="#42968A"/>
<path d="M210.968 253.227C190.408 250.447 175.994 231.528 178.773 210.968C181.553 190.408 200.472 175.994 221.032 178.773L226.279 139.955C222.051 139.384 217.858 139.181 213.731 139.313C201.763 139.695 190.354 142.929 180.268 148.435C172.897 152.459 166.234 157.695 160.579 163.916C153.01 172.242 147.246 182.329 144.009 193.632C143.018 197.095 142.259 200.669 141.762 204.343C141.115 209.13 140.94 213.871 141.19 218.522C141.801 229.895 144.987 240.727 150.243 250.354C154.267 257.726 159.503 264.388 165.723 270.044C173.665 277.265 183.21 282.84 193.882 286.149C197.827 287.372 201.923 288.289 206.151 288.861L210.968 253.227Z" fill="#B7D6CA"/>
<path d="M178.773 210.968C175.994 231.528 190.408 250.447 210.968 253.227L221.032 178.773C200.472 175.994 181.553 190.408 178.773 210.968Z" fill="#42968A"/>
<path d="M253.227 221.032C256.006 200.472 241.592 181.553 221.032 178.773L210.968 253.227C231.528 256.006 250.448 241.592 253.227 221.032Z" fill="#07806D"/>
</svg>
